<svg width="44" height="40" viewBox="0 0 44 40" fill="none" xmlns="http://www.w3.org/2000/svg">
<path d="M5.66667 8.33331H8C9.23768 8.33331 10.4247 7.84165 11.2998 6.96648C12.175 6.09131 12.6667 4.90432 12.6667 3.66665C12.6667 3.04781 12.9125 2.45432 13.3501 2.01673C13.7877 1.57915 14.3812 1.33331 15 1.33331H29C29.6188 1.33331 30.2123 1.57915 30.6499 2.01673C31.0875 2.45432 31.3333 3.04781 31.3333 3.66665C31.3333 4.90432 31.825 6.09131 32.7002 6.96648C33.5753 7.84165 34.7623 8.33331 36 8.33331H38.3333C39.571 8.33331 40.758 8.82498 41.6332 9.70015C42.5083 10.5753 43 11.7623 43 13V34C43 35.2377 42.5083 36.4246 41.6332 37.2998C40.758 38.175 39.571 38.6666 38.3333 38.6666H5.66667C4.42899 38.6666 3.242 38.175 2.36683 37.2998C1.49167 36.4246 1 35.2377 1 34V13C1 11.7623 1.49167 10.5753 2.36683 9.70015C3.242 8.82498 4.42899 8.33331 5.66667 8.33331" stroke="white" stroke-width="2" stroke-linecap="round" stroke-linejoin="round"/>
</svg>
