<svg width="113" height="28" viewBox="0 0 113 28" fill="none" xmlns="http://www.w3.org/2000/svg">
<path d="M5.27025 18.112C4.52358 18.112 3.85158 17.984 3.25425 17.728C2.65692 17.4613 2.18758 17.088 1.84625 16.608C1.50492 16.128 1.33425 15.568 1.33425 14.928H3.28625C3.32892 15.408 3.51558 15.8027 3.84625 16.112C4.18758 16.4213 4.66225 16.576 5.27025 16.576C5.89958 16.576 6.39025 16.4267 6.74225 16.128C7.09425 15.8187 7.27025 15.424 7.27025 14.944C7.27025 14.5707 7.15825 14.2667 6.93425 14.032C6.72092 13.7973 6.44892 13.616 6.11825 13.488C5.79825 13.36 5.35025 13.2213 4.77425 13.072C4.04892 12.88 3.45692 12.688 2.99825 12.496C2.55025 12.2933 2.16625 11.984 1.84625 11.568C1.52625 11.152 1.36625 10.5973 1.36625 9.904C1.36625 9.264 1.52625 8.704 1.84625 8.224C2.16625 7.744 2.61425 7.376 3.19025 7.12C3.76625 6.864 4.43292 6.736 5.19025 6.736C6.26758 6.736 7.14758 7.008 7.83025 7.552C8.52358 8.08533 8.90758 8.82133 8.98225 9.76H6.96625C6.93425 9.35467 6.74225 9.008 6.39025 8.72C6.03825 8.432 5.57425 8.288 4.99825 8.288C4.47558 8.288 4.04892 8.42133 3.71825 8.688C3.38758 8.95467 3.22225 9.33867 3.22225 9.84C3.22225 10.1813 3.32358 10.464 3.52625 10.688C3.73958 10.9013 4.00625 11.072 4.32625 11.2C4.64625 11.328 5.08358 11.4667 5.63825 11.616C6.37425 11.8187 6.97158 12.0213 7.43025 12.224C7.89958 12.4267 8.29425 12.7413 8.61425 13.168C8.94492 13.584 9.11025 14.144 9.11025 14.848C9.11025 15.4133 8.95558 15.9467 8.64625 16.448C8.34758 16.9493 7.90492 17.3547 7.31825 17.664C6.74225 17.9627 6.05958 18.112 5.27025 18.112ZM15.8225 9.04C16.4945 9.04 17.0918 9.184 17.6145 9.472C18.1478 9.76 18.5638 10.1867 18.8625 10.752C19.1718 11.3173 19.3265 12 19.3265 12.8V18H17.5185V13.072C17.5185 12.2827 17.3212 11.68 16.9265 11.264C16.5318 10.8373 15.9932 10.624 15.3105 10.624C14.6278 10.624 14.0838 10.8373 13.6785 11.264C13.2838 11.68 13.0865 12.2827 13.0865 13.072V18H11.2625V6.16H13.0865V10.208C13.3958 9.83467 13.7852 9.54667 14.2545 9.344C14.7345 9.14133 15.2572 9.04 15.8225 9.04ZM25.4771 18.144C24.6451 18.144 23.8931 17.9573 23.2211 17.584C22.5491 17.2 22.0211 16.6667 21.6371 15.984C21.2531 15.2907 21.0611 14.4907 21.0611 13.584C21.0611 12.688 21.2585 11.8933 21.6531 11.2C22.0478 10.5067 22.5865 9.97333 23.2691 9.6C23.9518 9.22667 24.7145 9.04 25.5571 9.04C26.3998 9.04 27.1625 9.22667 27.8451 9.6C28.5278 9.97333 29.0665 10.5067 29.4611 11.2C29.8558 11.8933 30.0531 12.688 30.0531 13.584C30.0531 14.48 29.8505 15.2747 29.4451 15.968C29.0398 16.6613 28.4851 17.2 27.7811 17.584C27.0878 17.9573 26.3198 18.144 25.4771 18.144ZM25.4771 16.56C25.9465 16.56 26.3838 16.448 26.7891 16.224C27.2051 16 27.5411 15.664 27.7971 15.216C28.0531 14.768 28.1811 14.224 28.1811 13.584C28.1811 12.944 28.0585 12.4053 27.8131 11.968C27.5678 11.52 27.2425 11.184 26.8371 10.96C26.4318 10.736 25.9945 10.624 25.5251 10.624C25.0558 10.624 24.6185 10.736 24.2131 10.96C23.8185 11.184 23.5038 11.52 23.2691 11.968C23.0345 12.4053 22.9171 12.944 22.9171 13.584C22.9171 14.5333 23.1571 15.2693 23.6371 15.792C24.1278 16.304 24.7411 16.56 25.4771 16.56ZM33.6803 10.48C33.9896 10.0747 34.4109 9.73333 34.9443 9.456C35.4776 9.17867 36.0803 9.04 36.7523 9.04C37.5203 9.04 38.2189 9.232 38.8483 9.616C39.4883 9.98933 39.9896 10.5173 40.3523 11.2C40.7149 11.8827 40.8963 12.6667 40.8963 13.552C40.8963 14.4373 40.7149 15.232 40.3523 15.936C39.9896 16.6293 39.4883 17.1733 38.8483 17.568C38.2189 17.952 37.5203 18.144 36.7523 18.144C36.0803 18.144 35.4829 18.0107 34.9603 17.744C34.4376 17.4667 34.0109 17.1253 33.6803 16.72V22.192H31.8563V9.184H33.6803V10.48ZM39.0403 13.552C39.0403 12.944 38.9123 12.4213 38.6562 11.984C38.4109 11.536 38.0803 11.2 37.6643 10.976C37.2589 10.7413 36.8216 10.624 36.3523 10.624C35.8936 10.624 35.4563 10.7413 35.0403 10.976C34.6349 11.2107 34.3043 11.552 34.0483 12C33.8029 12.448 33.6803 12.976 33.6803 13.584C33.6803 14.192 33.8029 14.7253 34.0483 15.184C34.3043 15.632 34.6349 15.9733 35.0403 16.208C35.4563 16.4427 35.8936 16.56 36.3523 16.56C36.8216 16.56 37.2589 16.4427 37.6643 16.208C38.0803 15.9627 38.4109 15.6107 38.6562 15.152C38.9123 14.6933 39.0403 14.16 39.0403 13.552ZM55.9923 18H54.1683L48.6803 9.696V18H46.8563V6.864H48.6803L54.1683 15.152V6.864H55.9923V18ZM62.2115 18.144C61.3795 18.144 60.6275 17.9573 59.9555 17.584C59.2835 17.2 58.7555 16.6667 58.3715 15.984C57.9875 15.2907 57.7955 14.4907 57.7955 13.584C57.7955 12.688 57.9928 11.8933 58.3875 11.2C58.7822 10.5067 59.3208 9.97333 60.0035 9.6C60.6862 9.22667 61.4488 9.04 62.2915 9.04C63.1342 9.04 63.8968 9.22667 64.5795 9.6C65.2622 9.97333 65.8008 10.5067 66.1955 11.2C66.5902 11.8933 66.7875 12.688 66.7875 13.584C66.7875 14.48 66.5848 15.2747 66.1795 15.968C65.7742 16.6613 65.2195 17.2 64.5155 17.584C63.8222 17.9573 63.0542 18.144 62.2115 18.144ZM62.2115 16.56C62.6808 16.56 63.1182 16.448 63.5235 16.224C63.9395 16 64.2755 15.664 64.5315 15.216C64.7875 14.768 64.9155 14.224 64.9155 13.584C64.9155 12.944 64.7928 12.4053 64.5475 11.968C64.3022 11.52 63.9768 11.184 63.5715 10.96C63.1662 10.736 62.7288 10.624 62.2595 10.624C61.7902 10.624 61.3528 10.736 60.9475 10.96C60.5528 11.184 60.2382 11.52 60.0035 11.968C59.7688 12.4053 59.6515 12.944 59.6515 13.584C59.6515 14.5333 59.8915 15.2693 60.3715 15.792C60.8622 16.304 61.4755 16.56 62.2115 16.56ZM80.4306 9.184L77.6946 18H75.7746L73.9986 11.488L72.2226 18H70.3026L67.5506 9.184H69.4066L71.2466 16.272L73.1186 9.184H75.0226L76.8146 16.24L78.6386 9.184H80.4306Z" fill="#FAFAFA"/>
<line y1="27.5" x2="81" y2="27.5" stroke="#FAFAFA"/>
<path d="M92.5 14H109M109 14L102 7M109 14L102 21" stroke="#FAFAFA" stroke-width="1.5" stroke-linecap="round" stroke-linejoin="round"/>
</svg>
